Coordinates
version=1
nRows=16
nColumns=36
inDegrees=yes

Units are S.I. units (second, meters, Newtons, ...)
If the header above contains a line with 'inDegrees', this indicates whether rotational values are in degrees (yes) or radians (no).

endheader
time	pelvis_tilt	pelvis_list	pelvis_rotation	pelvis_tx	pelvis_ty	pelvis_tz	hip_flexion_r	hip_adduction_r	hip_rotation_r	knee_angle_r	knee_angle_r_beta	ankle_angle_r	subtalar_angle_r	mtp_angle_r	hip_flexion_l	hip_adduction_l	hip_rotation_l	knee_angle_l	knee_angle_l_beta	ankle_angle_l	subtalar_angle_l	mtp_angle_l	lumbar_extension	lumbar_bending	lumbar_rotation	arm_flex_r	arm_add_r	arm_rot_r	elbow_flex_r	pro_sup_r	arm_flex_l	arm_add_l	arm_rot_l	elbow_flex_l	pro_sup_l
      0.00000000	    -10.37336538	     -1.78916530	     -3.89823720	      0.71812113	      1.31720090	     -0.05722392	      9.91102889	      1.75051429	     -3.10834471	      3.42692956	      0.05981120	      0.55445581	     -4.13584918	     -4.76523916	     10.97095610	     -0.80817943	      1.24285708	      4.43499985	      0.07740535	      3.46664962	     -2.63648948	     -4.76523916	     -1.84757960	      1.37596079	      0.07696919	     -2.28155237	    -10.19020845	      1.22227695	     14.78900444	     85.35695964	     -0.33641401	    -10.98350154	      4.40316270	     16.50092103	     86.80757814
      0.01666670	    -11.19445107	     -2.01719546	     -4.27162290	      0.71940954	      1.31468288	     -0.05696749	      9.88247403	      2.32503697	     -3.22508625	      1.98396230	      0.03462667	      2.28304331	     -1.85345670	     -4.92995910	     11.56007098	     -0.91175690	      0.86685924	      3.97261412	      0.06933520	      2.45174110	     -3.78874522	     -4.92995910	     -2.39270990	      1.28088039	      0.97082092	     -2.60468659	    -10.32375958	      2.68645727	     12.94364682	     86.24768269	     -0.15750596	    -10.56975815	      4.99301120	     14.29738431	     87.08442528
      0.03333330	    -11.64254858	     -1.77583217	     -4.33845595	      0.71812097	      1.31506549	     -0.05694419	     10.03549678	      2.22377094	     -3.21122878	      1.28580860	      0.02244159	      2.68487985	     -1.83679739	     -5.56431003	     11.87030217	     -0.63402453	      2.02146544	      3.61063829	      0.06301753	      3.21142649	     -3.65721850	     -5.56431003	     -2.78073415	      0.90470774	      0.87697274	     -2.25735155	    -10.61351692	      7.70388469	     11.75469312	     89.03868409	      0.49047256	    -10.63030988	      8.10891025	     12.41362677	     88.41556205
      0.05000000	    -11.78590281	     -1.53289479	     -4.30020072	      0.71769406	      1.31434827	     -0.05646695	     10.24356236	      1.89114207	     -3.86433637	      1.43332423	      0.02501623	      3.71261583	     -0.91959304	     -5.93743734	     12.16218310	     -0.28202585	      2.25844255	      3.92877652	      0.06857009	      4.53682593	     -2.90922185	     -5.93743734	     -3.25425117	      0.53458327	      0.48676672	     -1.82123456	    -10.43986248	      8.81795565	     10.98941561	     88.01740994	      0.76236894	    -10.59391954	      8.53021476	     11.44112256	     87.02133256
      0.06666670	    -11.77872539	     -1.22428554	     -4.41059124	      0.71598705	      1.31774042	     -0.05676013	     10.49110679	      1.56136967	     -4.02610926	      1.88802906	      0.03295232	      4.64088440	     -0.21286105	     -6.40970888	     12.37828167	      0.11338211	      2.07840691	      4.42976759	      0.07731403	      5.36826590	     -2.09304313	     -6.40970888	     -3.79455291	      0.00188537	      0.36664743	     -1.35772382	    -10.49908443	     12.08244146	     10.49317966	     89.30629098	      0.97784907	    -10.90009353	     10.94428253	     11.16660418	     87.75882356
      0.08333330	    -11.80890719	     -0.87007717	     -4.76027104	      0.71541926	      1.31783114	     -0.05590592	     10.79364250	      1.18927729	     -3.88614306	      2.43608905	      0.04251777	      5.21446870	     -0.15020443	     -6.71317293	     12.50174280	      0.45588974	      1.76799640	      4.77594731	      0.08335601	      5.80165146	     -1.42178911	     -6.71317293	     -4.15678210	     -0.55532536	      0.50132587	     -0.98808621	    -10.29171649	     12.30540749	      9.98328864	     90.72388504	      1.42406839	    -10.98985889	     11.51278166	     10.49984045	     89.02791522
      0.10000000	    -11.58075587	     -0.53510442	     -5.07271352	      0.71397952	      1.31800934	     -0.05596725	     10.80850068	      0.81989612	     -3.74339816	      2.92304213	      0.05101671	      5.60687998	     -0.12011906	     -6.85747289	     12.34000080	      0.79534011	      1.36132134	      4.98178333	      0.08694852	      6.02078808	     -0.66040060	     -6.85747289	     -4.88794291	     -1.10507800	      0.62266439	     -0.88513988	    -10.14358446	     12.31408685	     10.30995536	     87.85751910	      1.54300827	    -11.09841727	     11.36940319	     10.88801305	     86.17887017
      0.11666670	    -11.97183421	     -0.31166119	     -5.33134645	      0.70766267	      1.31768807	     -0.05256887	     11.66777012	      0.66201165	     -3.58811302	      3.65439656	      0.06378125	      5.99237897	     -0.22615838	     -6.88456551	     13.22349862	      0.90924115	      0.82935474	      5.72679346	      0.09995140	      6.67059446	      0.31105159	     -6.88456551	     -4.83199806	     -1.46979703	      0.71026360	     -0.37198575	     -9.92368592	     12.77612649	      9.47366802	     88.64007175	      2.06572847	    -11.18089831	     12.08151211	      9.92817618	     87.05703945
      0.13333330	    -11.73713469	     -0.18475909	     -5.54482250	      0.70660005	      1.31794334	     -0.05297015	     11.69235497	      0.53825800	     -3.32206739	      4.12803874	      0.07204787	      6.19611560	     -0.48352310	     -6.93345625	     13.15003570	      0.98844294	      0.56435220	      5.97096585	      0.10421301	      6.68960988	      0.52620600	     -6.93345625	     -5.54499856	     -1.79102249	      0.82624599	     -0.06255206	     -9.82649887	     12.89386585	      9.60262629	     87.92941529	      2.38696945	    -11.30163447	     12.32092877	      9.94236719	     86.45559192
      0.15000000	    -11.78481394	     -0.18795891	     -5.55197456	      0.71271252	      1.31754239	     -0.05557781	     11.67644239	      0.50978664	     -3.31912784	      4.14190727	      0.07228992	      6.19653834	     -0.48440087	     -6.93349082	     13.10781866	      0.98285588	      0.56343288	      5.98893145	      0.10452657	      6.68332725	      0.52922360	     -6.93349082	     -5.55099186	     -1.80163159	      0.82693694	     -0.05282866	     -9.82266765	     12.89445980	      9.60391464	     87.93016656	      2.39573501	    -11.30599819	     12.32198179	      9.94217229	     86.45671428
      0.16666670	    -11.20956412	     -0.05177059	     -5.73472097	      0.71137407	      1.31442404	     -0.05590805	     11.23880270	      0.30559172	     -2.76711057	      4.61049642	      0.08046834	      6.50267790	     -0.90466716	     -6.99644718	     12.48654788	      1.10916601	      0.22748667	      6.10354405	      0.10652694	      6.74477787	      1.17038103	     -6.99644718	     -6.28174414	     -2.16555210	      1.25074010	      0.16064582	     -9.81954937	     13.62881874	      9.20220954	     88.77238322	      3.18281419	    -11.37320321	     14.84030596	      8.87558322	     88.20189266
      0.18333330	    -10.88178509	     -0.05214866	     -5.64191754	      0.71110412	      1.31487403	     -0.05565190	     10.84359386	      0.20655597	     -2.64648584	      4.74660904	      0.08284396	      6.76499249	     -0.95193545	     -7.01749319	     12.06208442	      1.17496801	      0.50017663	      6.17741194	      0.10781618	      6.72200310	      1.11669342	     -7.01749319	     -6.65972221	     -2.23479839	      1.24612990	      0.25605732	     -9.78718604	     13.53893134	      9.07966848	     88.27942164	      3.38634391	    -11.34290201	     14.84933285	      8.66991702	     87.76103270
      0.20000000	    -10.65869338	     -0.06037935	     -5.56635490	      0.70930556	      1.31230142	     -0.05615302	     10.61850256	      0.14804620	     -2.47873182	      5.01331099	      0.08749878	      7.18139898	     -1.11901716	     -7.02160275	     11.76011244	      1.20173333	      0.73333791	      6.30868661	      0.11010735	      6.90175822	      1.14059315	     -7.02160275	     -6.85298307	     -2.22561717	      1.21941985	      0.26431428	     -9.80828080	     13.49311638	      9.16436522	     88.26487256	      3.51101954	    -11.33291195	     14.92625629	      8.69195747	     87.79231916
      0.21666670	    -10.16445438	     -0.10426904	     -5.40754403	      0.70893382	      1.31320623	     -0.05596641	     10.00842391	      0.09403968	     -2.31899521	      5.09565321	      0.08893593	      7.36334634	     -1.32443766	     -7.05869028	     11.18018432	      1.21993162	      1.03272101	      6.43323062	      0.11228106	      6.87625655	      0.96403582	     -7.05869028	     -7.42028677	     -2.20776835	      1.16385068	      0.40355081	     -9.81458151	     13.32794520	      9.17098326	     87.23622164	      3.86058887	    -11.31685420	     15.09471615	      8.43906109	     86.89685797
      0.23333330	     -9.85374712	     -0.11697126	     -5.32204800	      0.70792068	      1.31371610	     -0.05652555	      9.67214432	      0.03578073	     -2.23302774	      5.26450415	      0.09188293	      7.67970673	     -1.42645739	     -7.18559178	     10.85879214	      1.23317142	      1.27895336	      6.64041379	      0.11589708	      7.05968312	      1.01146089	     -7.18559178	     -7.72494392	     -2.23889511	      1.43690864	      0.30147346	     -9.87176911	     13.72876479	      9.21188308	     86.46839331	      4.41762560	    -11.31404996	     17.99000043	      7.76918231	     86.66379577
      0.25000000	     -9.60795147	     -0.15046965	     -5.18093724	      0.70816409	      1.31071183	     -0.05618904	      9.37880736	     -0.00024871	     -2.14856873	      5.40486230	      0.09433264	      7.94515348	     -1.66398145	     -7.23661853	     10.54411625	      1.22251998	      1.44110712	      6.71686153	      0.11723135	      7.16263261	      1.00699396	     -7.23661853	     -7.96480123	     -2.21356355	      1.37283647	      0.33459379	     -9.82335614	     13.36660731	      9.23304905	     85.63379737	      4.59204371	    -11.27961734	     17.89615242	      7.60551339	     85.77279136
